<svg height="512pt" viewBox="0 0 512 512" width="512pt" xmlns="http://www.w3.org/2000/svg"><path d="m256 512c-4.710938 0-8.535156-3.8125-8.535156-8.535156v-494.929688c0-4.722656 3.824218-8.535156 8.535156-8.535156s8.535156 3.8125 8.535156 8.535156v494.929688c0 4.722656-3.824218 8.535156-8.535156 8.535156zm0 0"/><path d="m503.464844 264.535156h-494.929688c-4.710937 0-8.535156-3.816406-8.535156-8.535156s3.824219-8.535156 8.535156-8.535156h494.929688c4.710937 0 8.535156 3.816406 8.535156 8.535156s-3.824219 8.535156-8.535156 8.535156zm0 0"/><path d="m426.667969 435.199219c-2.1875 0-4.371094-.835938-6.035157-2.5l-341.332031-341.332031c-3.335937-3.335938-3.335937-8.730469 0-12.066407 3.328125-3.335937 8.738281-3.335937 12.066407 0l341.332031 341.332031c3.335937 3.335938 3.335937 8.730469 0 12.066407-1.664063 1.664062-3.847657 2.5-6.03125 2.5zm0 0"/><path d="m85.332031 435.199219c-2.183593 0-4.367187-.835938-6.03125-2.5-3.335937-3.335938-3.335937-8.730469 0-12.066407l341.332031-341.332031c3.335938-3.335937 8.730469-3.335937 12.066407 0 3.335937 3.335938 3.335937 8.730469 0 12.066407l-341.332031 341.332031c-1.664063 1.664062-3.847657 2.5-6.035157 2.5zm0 0"/><path d="m256 486.398438c-3.609375 0-6.835938-2.277344-8.039062-5.671876-10.015626-28.167968-31.605469-50.886718-59.21875-62.328124-27.625-11.460938-58.949219-10.660157-85.957032 2.191406-3.261718 1.5625-7.144531.886718-9.695312-1.671875-2.550782-2.550781-3.226563-6.433594-1.671875-9.703125 12.832031-27 13.636719-58.324219 2.191406-85.945313-11.441406-27.625-34.15625-49.214843-62.328125-59.222656-3.410156-1.210937-5.679688-4.4375-5.679688-8.046875s2.269532-6.835938 5.671876-8.039062c28.167968-10.015626 50.886718-31.597657 62.328124-59.21875 11.445313-27.625 10.640626-58.949219-2.191406-85.949219-1.554687-3.269531-.878906-7.152344 1.671875-9.703125 2.550781-2.550782 6.441407-3.226563 9.695313-1.671875 27.007812 12.851562 58.332031 13.644531 85.953125 2.191406 27.625-11.441406 49.214843-34.15625 59.222656-62.328125 1.210937-3.402344 4.4375-5.679688 8.046875-5.679688s6.835938 2.277344 8.039062 5.671876c10.015626 28.167968 31.605469 50.886718 59.230469 62.328124 27.613281 11.453126 58.945313 10.648438 85.953125-2.191406 3.261719-1.570312 7.144532-.886718 9.695313 1.671875 2.550781 2.550781 3.226562 6.433594 1.671875 9.703125-12.832032 27-13.636719 58.332032-2.191406 85.945313 11.441406 27.625 34.160156 49.214843 62.328124 59.222656 3.402344 1.210937 5.671876 4.4375 5.671876 8.046875s-2.269532 6.835938-5.671876 8.039062c-28.167968 10.015626-50.886718 31.597657-62.328124 59.21875-11.445313 27.617188-10.640626 58.949219 2.191406 85.949219 1.554687 3.269531.878906 7.152344-1.671875 9.703125-2.550781 2.550782-6.425781 3.234375-9.695313 1.671875-27.007812-12.84375-58.324218-13.652343-85.953125-2.191406-27.625 11.441406-49.214843 34.15625-59.230469 62.328125-1.203124 3.402344-4.429687 5.679688-8.039062 5.679688zm-107.757812-93.105469c15.980468 0 31.972656 3.097656 47.027343 9.34375 25.984375 10.761719 47.367188 30.113281 60.730469 54.46875 13.371094-24.355469 34.757812-43.707031 60.730469-54.476563 25.976562-10.761718 54.777343-12.21875 81.460937-4.429687-7.765625-26.675781-6.332031-55.484375 4.4375-81.46875 10.769532-25.984375 30.113282-47.367188 54.46875-60.730469-24.355468-13.363281-43.707031-34.746094-54.46875-60.730469-10.761718-25.984375-12.203125-54.792969-4.4375-81.46875-26.675781 7.765625-55.476562 6.332031-81.460937-4.429687-25.972657-10.769532-47.359375-30.113282-60.730469-54.476563-13.371094 24.355469-34.757812 43.707031-60.730469 54.46875-25.984375 10.769531-54.785156 12.210938-81.460937 4.4375 7.765625 26.675781 6.324218 55.484375-4.4375 81.46875-10.761719 25.984375-30.113282 47.367188-54.46875 60.730469 24.355468 13.363281 43.707031 34.746094 54.46875 60.730469 10.761718 25.984375 12.203125 54.792969 4.4375 81.46875 11.222656-3.269531 22.820312-4.90625 34.433594-4.90625zm0 0"/><path d="m256 384c-3.609375 0-6.835938-2.277344-8.039062-5.675781-5.015626-14.113281-15.835938-25.503907-29.6875-31.238281-13.847657-5.734376-29.550782-5.335938-43.085938 1.101562-3.257812 1.558594-7.140625.886719-9.691406-1.675781-2.550782-2.550781-3.226563-6.433594-1.671875-9.699219 6.433593-13.535156 6.832031-29.238281 1.097656-43.078125-5.734375-13.847656-17.125-24.667969-31.246094-29.6875-3.40625-1.210937-5.675781-4.4375-5.675781-8.046875s2.269531-6.835938 5.675781-8.039062c14.121094-5.027344 25.511719-15.835938 31.246094-29.6875 5.734375-13.839844 5.335937-29.542969-1.097656-43.074219-1.554688-3.269531-.878907-7.152344 1.671875-9.703125 2.550781-2.550782 6.441406-3.226563 9.691406-1.671875 13.542969 6.441406 29.246094 6.832031 43.085938 1.097656 13.839843-5.734375 24.660156-17.125 29.6875-31.238281 1.203124-3.40625 4.429687-5.683594 8.039062-5.683594s6.835938 2.277344 8.039062 5.675781c5.027344 14.113281 15.835938 25.503907 29.6875 31.238281 13.839844 5.734376 29.542969 5.34375 43.085938-1.101562 3.265625-1.558594 7.140625-.886719 9.691406 1.675781 2.550782 2.550781 3.226563 6.433594 1.671875 9.699219-6.433593 13.535156-6.832031 29.238281-1.097656 43.078125 5.734375 13.847656 17.117187 24.667969 31.238281 29.6875 3.414063 1.210937 5.683594 4.4375 5.683594 8.046875s-2.269531 6.835938-5.675781 8.039062c-14.121094 5.027344-25.503907 15.835938-31.238281 29.6875-5.734376 13.839844-5.335938 29.542969 1.101562 43.074219 1.550781 3.269531.878906 7.152344-1.675781 9.703125-2.550781 2.550782-6.425781 3.234375-9.691407 1.671875-13.535156-6.441406-29.246093-6.832031-43.085937-1.097656-13.847656 5.734375-24.660156 17.125-29.6875 31.238281-1.210937 3.40625-4.4375 5.683594-8.046875 5.683594zm-58.027344-58.007812c9.121094 0 18.246094 1.765624 26.828125 5.324218 12.757813 5.28125 23.570313 14.199219 31.199219 25.429688 7.628906-11.230469 18.441406-20.148438 31.1875-25.429688 12.757812-5.292968 26.703125-6.625 40.046875-4.082031-2.550781-13.335937-1.210937-27.289063 4.082031-40.035156 5.28125-12.757813 14.199219-23.570313 25.429688-31.199219-11.238282-7.636719-20.148438-18.441406-25.429688-31.199219-5.285156-12.746093-6.625-26.699219-4.082031-40.035156-13.335937 2.550781-27.289063 1.210937-40.046875-4.082031-12.753906-5.28125-23.558594-14.199219-31.1875-25.429688-7.628906 11.230469-18.441406 20.148438-31.199219 25.429688-12.757812 5.285156-26.707031 6.625-40.046875 4.082031 2.554688 13.335937 1.214844 27.289063-4.078125 40.035156-5.28125 12.757813-14.199219 23.570313-25.4375 31.199219 11.238281 7.636719 20.15625 18.441406 25.4375 31.199219 5.28125 12.757812 6.632813 26.699219 4.078125 40.035156 4.371094-.824219 8.789063-1.242187 13.21875-1.242187zm0 0"/></svg>